HIERARCHY
ROOT pelvis
{
  OFFSET 0 100 0
  CHANNELS 6 Xposition Yposition Zposition Zrotation Xrotation Yrotation
  JOINT pelvis_right_femur
  {
    OFFSET -10.78128 -3.44521 -0.5502486
    CHANNELS 3 Zrotation Xrotation Yrotation
    JOINT right_femur_tibia
    {
      OFFSET -0.8047443 -44.0398 -0.1307829
      CHANNELS 3 Zrotation Xrotation Yrotation
      JOINT right_tibia_foot
      {
        OFFSET 3.006224 -47.83518 -5
        CHANNELS 3 Zrotation Xrotation Yrotation
        End Site
        {
          OFFSET 0 -5 15
        }
      }
    }
  }
  JOINT pelvis_left_femur
  {
    OFFSET 10.78128 -3.44521 -0.5502486
    CHANNELS 3 Zrotation Xrotation Yrotation
    JOINT left_femur_tibia
    {
      OFFSET 0.8047443 -44.0398 -0.1307829
      CHANNELS 3 Zrotation Xrotation Yrotation
      JOINT left_tibia_foot
      {
        OFFSET -4.370144 -48.10324 -4.275266
        CHANNELS 3 Zrotation Xrotation Yrotation
        End Site
        {
          OFFSET 0 -5 15
        }
      }
    }
  }
  JOINT pelvis_spine1
  {
    OFFSET 0 6.468898 -3.129235
    CHANNELS 3 Zrotation Xrotation Yrotation
    JOINT spine1
    {
      OFFSET 0 23.15396 4.99043
      CHANNELS 3 Zrotation Xrotation Yrotation
      JOINT spine2
      {
        OFFSET 0 20.79997 -5.064912
        CHANNELS 3 Zrotation Xrotation Yrotation
        JOINT neck
        {
          OFFSET 0 14.38658 9.616178
          CHANNELS 3 Zrotation Xrotation Yrotation
          End Site
          {
            OFFSET 0 20 0
          }
        }
      }
      JOINT right_manubrium
      {
        OFFSET -5.722621 16.35077 3.967754
        CHANNELS 3 Zrotation Xrotation Yrotation
        JOINT right_clavicle
        {
          OFFSET -13.16364 1.694482 -4.693211
          CHANNELS 3 Zrotation Xrotation Yrotation
          JOINT right_humerus
          {
            OFFSET -28.5034 -0.3100689 -2.792744
            CHANNELS 3 Zrotation Xrotation Yrotation
            JOINT right_radius
            {
              OFFSET -25.15693 0.02248979 -1.271978
              CHANNELS 3 Zrotation Xrotation Yrotation
              End Site
              {
                OFFSET -15 0 0
              }
            }
          }
        }
      }
      JOINT left_manubrium
      {
        OFFSET 5.722621 16.35077 3.967754
        CHANNELS 3 Zrotation Xrotation Yrotation
        JOINT left_clavicle
        {
          OFFSET 13.16364 1.694482 -4.693211
          CHANNELS 3 Zrotation Xrotation Yrotation
          JOINT left_humerus
          {
            OFFSET 29.39168 -1.063119 -2.237045
            CHANNELS 3 Zrotation Xrotation Yrotation
            JOINT left_radius
            {
              OFFSET 24.59957 -0.9528479 0.9047498
              CHANNELS 3 Zrotation Xrotation Yrotation
              End Site
              {
                OFFSET 15 -0 -0
              }
            }
          }
        }
      }
    }
  }
}
MOTION
Frames: 23
Frame Time: 0.0416666666667
37.9742 101.2069 260.13 -0.3998601 -2.765617 -0.8140739 2.060473 13.29124 4.133991 -0 18.20541 -0 6.273407 -18.14697 -2.76741 5.112546 -32.93534 -0.2178004 -0 23.93748 -0 -7.485664 -8.955158 17.99317 0.9612451 -1.696811 9.770028 -2.629868 10.77874 -2.046465 1.76392 18.63255 5.286227 2.185904 -17.69252 5.861791 2.804034 -22.44352 11.09988 77.26567 19.44625 -3.243452 -0 0 26.14452 -25.09578 11.73762 15.95139 1.93449 -14.94003 -2.636343 -88.79019 20.20304 25.57446 0 0 -13.41878 -3.556086 4.125657 19.71668
39.43721 100.3587 267.95 -0.3740834 -2.668606 -0.4573463 1.850979 12.81606 5.111459 -0 25.73792 -0 8.107715 -16.591 -3.58086 3.141227 -30.54393 -1.972709 -0 25.37989 -0 -7.267448 -8.984135 17.26367 0.8217104 -2.985213 9.643013 -2.697245 10.62358 -2.231545 2.022878 18.79047 5.190737 2.12405 -17.66663 6.116079 2.439651 -21.86458 10.24401 77.44004 18.82424 -3.286759 -0 0 26.91225 -25.27237 11.45195 16.25002 1.712127 -13.74147 -2.425192 -89.15251 20.28695 26.57978 0 0 -11.87668 -3.911135 4.151992 20.17754
40.90336 100.0843 275.542 -0.3819832 -2.722341 -0.6440537 0.9404077 13.01322 5.278689 -0 33.68864 -0 9.910531 -14.77392 -4.46273 2.136576 -29.22476 -3.238517 -0 26.86997 -0 -7.091693 -8.89114 16.48816 0.5037015 -4.119018 9.532781 -2.617828 10.53322 -2.270167 2.293386 19.17104 5.138539 2.123222 -17.42842 6.394506 2.428851 -21.07588 9.624881 77.95592 18.45278 -3.884684 -0 0 26.64942 -25.1759 11.2536 16.21455 1.5544 -12.95336 -2.322473 -89.15888 20.44531 26.65561 0 0 -11.07252 -4.176937 4.248617 20.3582
42.31803 100.6415 282.8619 -0.3363277 -2.532563 0.04950058 0.7831665 10.72659 4.990354 -0 43.09793 -0 11.01758 -13.29212 -5.561041 0.7464894 -26.35923 -4.381242 -0 28.57628 -0 -6.729066 -9.828731 15.58847 0.3017655 -5.237794 9.164109 -2.571054 10.46793 -2.306699 2.346393 19.80304 5.165798 2.016222 -17.13415 6.615656 2.820995 -20.1184 9.186988 78.65409 18.33644 -5.027239 -0 0 25.2651 -24.77356 11.17014 15.82901 1.341976 -12.83923 -2.292914 -88.46246 20.74577 25.69885 0 0 -10.86952 -4.215589 4.453993 20.17731
43.76738 101.8556 290.2327 -0.3042059 -2.388431 0.5864778 1.085165 2.80538 4.677467 -0 51.68477 -0 10.69815 -14.62602 -6.567462 -0.2613527 -22.06179 -5.162244 -0 28.42779 -0 -6.217168 -11.78293 14.84758 0.3346844 -6.426367 8.552435 -2.492022 10.59639 -2.323395 2.207246 20.54927 5.321694 1.807962 -16.74987 6.858975 3.505217 -18.9618 8.830115 79.66509 18.48354 -6.653379 -0 0 23.04628 -24.05146 11.20168 15.12008 1.012711 -13.04124 -2.230625 -87.27064 21.09985 24.03416 0 0 -11.02597 -4.054278 4.73951 19.72109
44.92618 102.837 295.99 -0.2642957 -2.187389 1.301476 1.266168 -0.8910902 4.150188 -0 57.20207 -0 10.75617 -10.88704 -8.162997 -1.157692 -17.20659 -5.553317 -0 26.68612 -0 -5.763634 -13.7558 14.30308 0.2405024 -6.145823 7.459106 -2.317611 10.41413 -2.670166 1.938013 21.20336 5.610794 1.535645 -16.13723 7.152654 3.844124 -18.40349 8.908365 80.71523 18.8605 -7.713593 -0 0 20.99614 -23.14488 11.2707 14.35386 0.9661098 -13.86753 -2.650266 -85.77248 21.45465 21.03386 0 0 -11.91946 -3.716069 5.084588 19.05531
46.12364 104.3294 302.0209 -0.2376367 -2.040139 1.826855 1.807777 -7.835686 4.106026 -0 57.95263 -0 9.97329 -9.113805 -8.842534 -1.766783 -12.02228 -5.793491 -0 24.12601 -0 -5.584518 -15.14422 13.8125 0.1608661 -6.527947 6.210445 -1.927263 10.07005 -3.36001 1.576757 21.73792 6.112864 1.214275 -15.72391 7.648279 3.987719 -17.4374 8.760182 82.11901 19.26377 -9.245691 -0 0 18.92967 -22.12373 11.32824 13.54955 1.083148 -14.37764 -3.169486 -84.41364 21.7084 17.77243 0 0 -12.94892 -3.327743 5.473609 18.25694
47.26047 105.5097 307.4665 -0.1937872 -1.776656 2.760195 2.150711 -14.5585 4.143811 -0 54.90616 -0 8.667127 -7.999958 -9.489719 -2.326213 -7.188568 -6.053087 -0 21.0777 -0 -5.583515 -16.21025 13.24652 -0.07050081 -6.734636 4.875968 -1.427255 9.881942 -4.329674 1.460289 22.58338 6.438699 1.048735 -15.04633 8.111773 3.698153 -16.66734 8.482625 83.28523 19.58314 -10.68453 -0 0 17.25873 -21.10641 11.29377 12.80269 1.352546 -15.29967 -3.864704 -82.91975 21.92299 14.03024 0 0 -14.27242 -2.924619 5.901191 17.26489
48.33441 105.9882 312.9906 -0.130737 -1.350191 4.2636 2.03671 -20.17021 4.152965 -0 48.62374 -0 7.113098 -7.071028 -10.41224 -2.668607 -2.636243 -6.271359 -0 18.11885 -0 -5.610133 -17.3901 12.53879 -0.408575 -6.978675 3.540481 -0.8708225 9.611684 -5.646547 1.599256 23.18837 6.516705 1.01956 -14.48552 8.449379 3.049437 -15.86056 7.906784 84.26992 19.76674 -12.2032 -0 0 15.80334 -20.10085 11.14237 12.03118 1.770027 -16.15612 -4.441959 -81.35912 22.03505 10.2125 0 0 -15.91728 -2.436754 6.424024 15.99217
49.3529 105.6644 318.6011 -0.07757157 -0.9192201 5.778445 1.925833 -24.52227 3.940785 -0 40.32145 -0 5.449697 -6.267539 -11.57082 -2.860139 1.484907 -6.474966 -0 16.06964 -0 -5.606186 -18.81312 11.84812 -0.7857673 -7.184732 2.245593 -0.3338442 9.289969 -6.958197 1.752544 23.5375 6.491619 0.9993112 -14.14147 8.651373 2.339051 -14.97684 7.335104 85.09281 19.85581 -13.76023 -0 0 14.23906 -19.06211 10.89893 11.12775 2.347176 -17.12679 -5.046453 -79.58185 22.07973 6.317717 0 0 -17.6768 -1.824277 7.046679 14.51324
50.32719 104.6951 324.7312 -0.04372535 -0.5838475 6.955592 1.513521 -28.63399 4.062287 -0 30.65886 -0 3.607982 -6.034126 -12.38157 -2.938235 5.342239 -6.785462 -0 15.28568 -0 -5.596053 -20.43696 11.27707 -1.034714 -7.626033 1.417917 0.1713691 9.160371 -7.764796 1.881463 23.75573 6.361603 0.9873791 -14.02833 8.675304 1.791912 -13.85138 6.883979 85.84375 19.91256 -15.5067 -0 0 12.08607 -17.86876 10.63057 9.911711 2.988908 -17.92555 -5.324894 -77.99627 21.94454 2.86962 0 0 -19.54796 -1.060334 7.73248 12.85883
51.11488 103.3668 330.7334 -0.0381017 -0.5170447 7.188478 1.55987 -30.79879 3.296549 -0 21.44419 -0 1.55182 -6.737491 -12.34224 -3.018568 8.792149 -6.922535 -0 15.76979 -0 -5.682688 -21.86249 10.96192 -1.108329 -7.092013 1.291397 0.5286916 8.948431 -7.960105 1.925176 23.9898 6.13707 0.966782 -14.02917 8.487034 1.403989 -12.86087 6.649759 86.52203 19.95554 -16.96574 -0 0 9.629621 -16.65574 10.31377 8.559385 3.748995 -18.8875 -5.124729 -76.47916 21.56327 -0.2502828 0 0 -21.43033 -0.06133322 8.463579 11.05723
51.59421 102.0821 336.0764 -0.03480799 -0.4748111 7.335561 2.083304 -31.9245 2.254647 -0 15.54625 -0 -0.4713786 -7.302804 -12.31042 -3.004331 11.07561 -6.88899 -0 17.54297 -0 -5.978019 -22.57253 10.90462 -1.024083 -6.520321 1.38666 0.8150993 8.281197 -7.739655 1.998977 23.92035 6.15723 0.9489394 -14.44486 8.623163 1.529717 -12.27109 6.952945 87.10318 20.07996 -18.0011 -0 0 6.910642 -15.31489 10.06421 7.077397 3.97416 -19.91894 -5.200448 -75.19075 21.02191 -2.71642 0 0 -22.57146 0.9788441 9.127898 9.355699
52.14266 100.9287 342.7599 -0.01522744 -0.2282668 8.202345 2.589582 -32.44735 2.443472 -0 15.6397 -0 -2.120629 -6.980223 -12.44796 -2.763044 12.99737 -6.836491 -0 20.90051 -0 -6.588309 -21.98814 11.03289 -0.7983221 -7.059778 1.259079 0.8661071 7.92863 -7.484453 1.922338 24.16349 6.131132 0.9078269 -14.77011 8.550178 1.729456 -11.57205 7.037838 87.80886 20.14562 -18.85779 -0 0 4.400102 -13.92015 9.849072 5.704442 4.023169 -20.31697 -4.809175 -74.91663 20.49044 -3.903273 0 0 -23.11483 1.991649 9.734115 7.803864
52.63795 100.3275 349.7734 0.002462081 0.0414825 9.150656 3.79105 -31.26478 3.709232 -0 18.76189 -0 -3.455569 -6.146547 -11.7229 -2.380389 13.60216 -6.957082 -0 26.38441 -0 -7.427241 -19.70657 11.54285 -0.6217819 -7.770413 1.014362 0.8874595 7.778154 -7.407749 1.837984 24.38778 6.03837 0.8864316 -15.23575 8.365232 2.031962 -10.72886 7.039299 88.72131 20.10969 -19.50925 -0 0 2.177445 -12.49893 9.642441 4.363953 4.001895 -20.15226 -4.383529 -75.43054 20.02419 -3.986476 0 0 -22.94049 2.895825 10.28602 6.48162
53.08457 100.4887 357.1629 0.009776324 0.1747743 9.618983 3.887991 -29.57001 5.319484 -0 23.08316 -0 -4.761516 -5.696323 -10.60155 -2.221412 12.45716 -6.879528 -0 34.46373 -0 -8.259493 -16.12773 12.78979 -0.4267655 -8.836286 1.080096 0.8907633 7.747296 -7.251632 1.766403 24.82206 5.856128 0.8999511 -15.73179 8.065091 2.242161 -10.27025 7.02617 88.99878 20.09892 -19.49608 -0 0 1.083001 -11.51977 9.36428 3.460024 3.868471 -19.29408 -3.854333 -76.78864 19.71309 -2.828232 0 0 -21.80424 3.578357 10.82752 5.492171
53.60268 101.3088 364.3308 -0.003771788 -0.05924053 8.796649 4.96762 -26.50493 6.471759 -0 25.93864 -0 -5.899736 -6.983863 -9.93454 -1.541125 7.500672 -6.76964 -0 43.30481 -0 -8.153839 -13.93893 14.99727 -0.175621 -9.608984 1.669322 0.9989998 7.76417 -6.816112 1.928259 25.23073 5.442128 1.043579 -16.43839 7.662288 2.471662 -10.35972 7.432712 88.428 20.20057 -18.62561 -0 0 1.025464 -11.0641 9.001959 2.9507 3.532091 -18.07326 -3.488961 -78.70313 19.47942 -0.8139271 0 0 -19.67001 3.966474 11.35109 4.870904
54.05649 102.3799 371.3861 -0.01588605 -0.2294751 8.198464 5.585959 -22.38317 7.227805 -0 26.97392 -0 -6.668919 -8.832766 -9.569585 -1.754373 0.758135 -6.248256 -0 50.73357 -0 -8.191985 -11.84306 17.21204 -0.02699881 -10.24666 2.696032 0.9552737 7.948193 -6.051955 2.267004 25.70655 5.054696 1.32303 -17.0158 7.415821 2.69464 -10.67373 7.926662 87.30333 20.33122 -17.27741 -0 0 1.712112 -11.05082 8.61053 2.687541 2.941076 -17.09565 -3.136236 -80.79249 19.24892 1.534419 0 0 -16.75494 4.068322 11.84741 4.580709
54.31354 103.6136 377.0808 -0.01931305 -0.273374 8.044746 5.784804 -17.81595 7.200774 -0 25.54309 -0 -6.965709 -10.45459 -9.227505 -1.78019 -4.895978 -5.569175 -0 58.06888 -0 -8.302469 -9.799344 19.41992 -0.08730646 -10.11909 3.731557 0.9509917 7.929528 -5.24292 2.646744 26.15786 4.688721 1.64909 -17.36886 7.205578 3.000398 -11.37494 8.503675 86.18408 20.33852 -15.3719 -0 0 3.042539 -11.20304 8.180365 2.534427 2.628479 -16.51666 -3.156491 -82.68687 18.94045 3.603612 0 0 -13.3865 3.96288 12.31411 4.528327
54.67747 104.9909 382.7596 -0.04193549 -0.5339831 7.129545 5.765094 -12.3847 6.580851 -0 22.51417 -0 -6.877012 -11.80773 -8.766922 -1.625811 -12.23109 -5.215994 -0 59.77365 -0 -8.039141 -8.535975 20.82689 0.04692203 -9.73502 4.705526 0.7690521 7.890749 -4.233325 2.86525 26.50694 4.516593 1.909101 -17.63776 7.077616 3.038082 -12.14439 9.043167 85.03105 20.23163 -13.29845 -0 0 4.630111 -11.514 7.714877 2.493663 2.654844 -15.78736 -3.047993 -84.51228 18.44894 6.129626 0 0 -9.620011 3.703109 12.73738 4.614555
55.15952 105.9612 388.1273 -0.07603703 -0.8597436 5.984166 5.836269 -7.419637 5.225793 -0 18.36685 -0 -6.594143 -13.208 -8.328266 -1.370061 -17.38715 -5.281592 -0 56.11288 -0 -7.662072 -7.992501 21.46444 0.254205 -8.666695 5.539153 0.2984811 7.939323 -2.968893 3.101785 26.25147 4.412019 2.170151 -18.17419 7.034211 2.784503 -12.48702 9.864286 84.46782 20.02117 -11.5142 -0 0 5.552055 -11.82875 7.270347 2.395813 2.928979 -15.17761 -3.035725 -86.06736 17.76036 8.692044 0 0 -5.8235 3.378561 13.10672 4.680504
55.59509 106.2642 393.4688 -0.1178125 -1.193129 4.809684 5.668162 -2.026215 3.883549 -0 15.40354 -0 -6.541493 -14.66394 -7.636029 -0.4522153 -22.43727 -5.676562 -0 47.42623 -0 -7.047262 -8.375105 21.85437 0.4517247 -7.417137 6.116436 -0.402074 7.479683 -1.770797 3.129496 25.88119 4.513891 2.341764 -18.74093 7.049086 2.178413 -13.95681 10.65075 82.96947 19.87488 -8.760753 -0 0 8.125057 -13.00718 6.912609 3.510516 3.371192 -14.60218 -2.955954 -87.21365 16.92523 11.27159 0 0 -2.150766 3.108729 13.45103 4.619254
56.14968 105.691 398.765 -0.1543101 -1.444962 3.919967 5.375335 2.660548 2.535579 -0 13.37797 -0 -6.762528 -16.38859 -6.844852 1.103513 -26.22756 -5.491797 -0 36.09326 -0 -6.827881 -8.397448 23.00359 0.5388209 -6.054692 6.211962 -0.9306066 7.058945 -1.088401 2.926713 25.27689 4.825773 2.421224 -19.39474 7.101685 1.614441 -15.60549 10.97999 81.33496 19.60404 -5.95791 -0 0 11.68496 -14.74033 6.613114 5.539813 3.883441 -13.97671 -2.800752 -88.17342 15.99884 13.78843 -0 0 1.295552 2.933745 13.80649 4.440034
